<?xml version="1.0" encoding="UTF-8" standalone="no"?>
<!-- Created with Inkscape (http://www.inkscape.org/) -->

<svg
   xmlns:dc="http://purl.org/dc/elements/1.1/"
   xmlns:cc="http://creativecommons.org/ns#"
   xmlns:rdf="http://www.w3.org/1999/02/22-rdf-syntax-ns#"
   xmlns:svg="http://www.w3.org/2000/svg"
   xmlns="http://www.w3.org/2000/svg"
   version="1.1"
   width="80.282509"
   height="91.029999"
   id="svg2"
   xml:space="preserve"><metadata
     id="metadata8"><rdf:RDF><cc:Work
         rdf:about=""><dc:format>image/svg+xml</dc:format><dc:type
           rdf:resource="http://purl.org/dc/dcmitype/StillImage" /><dc:title></dc:title></cc:Work></rdf:RDF></metadata><defs
     id="defs6"><clipPath
       id="clipPath20"><path
         d="m 123.016,12.497 64.226,0 0,72.824 -64.226,0 0,-72.824 z"
         id="path22" /></clipPath><clipPath
       id="clipPath40"><path
         d="m 12.496,12.496 436.535,0 0,612.284 -436.535,0 0,-612.284 z"
         id="path42" /></clipPath><clipPath
       id="clipPath68"><path
         d="m 59.918,100.368 367.527,0 0,224.425 -367.527,0 0,-224.425 z"
         id="path70" /></clipPath><clipPath
       id="clipPath82"><path
         d="m 59.918,100.368 367.527,0 0,224.425 -367.527,0 0,-224.425 z"
         id="path84" /></clipPath><clipPath
       id="clipPath96"><path
         d="m 59.918,100.368 367.527,0 0,224.425 -367.527,0 0,-224.425 z"
         id="path98" /></clipPath><clipPath
       id="clipPath110"><path
         d="m 59.918,100.368 367.527,0 0,224.425 -367.527,0 0,-224.425 z"
         id="path112" /></clipPath><clipPath
       id="clipPath124"><path
         d="m 59.918,100.368 367.527,0 0,224.425 -367.527,0 0,-224.425 z"
         id="path126" /></clipPath><clipPath
       id="clipPath146"><path
         d="m 59.918,100.368 367.527,0 0,224.425 -367.527,0 0,-224.425 z"
         id="path148" /></clipPath><clipPath
       id="clipPath160"><path
         d="m 59.918,100.368 367.527,0 0,224.425 -367.527,0 0,-224.425 z"
         id="path162" /></clipPath><clipPath
       id="clipPath174"><path
         d="m 59.918,100.368 367.527,0 0,224.425 -367.527,0 0,-224.425 z"
         id="path176" /></clipPath><clipPath
       id="clipPath188"><path
         d="m 59.918,100.368 367.527,0 0,224.425 -367.527,0 0,-224.425 z"
         id="path190" /></clipPath><clipPath
       id="clipPath206"><path
         d="m 59.918,100.368 367.527,0 0,224.425 -367.527,0 0,-224.425 z"
         id="path208" /></clipPath><clipPath
       id="clipPath228"><path
         d="m 59.918,100.368 367.527,0 0,224.425 -367.527,0 0,-224.425 z"
         id="path230" /></clipPath><clipPath
       id="clipPath254"><path
         d="m 59.918,100.368 367.527,0 0,224.425 -367.527,0 0,-224.425 z"
         id="path256" /></clipPath><clipPath
       id="clipPath300"><path
         d="m 59.918,100.368 367.527,0 0,224.425 -367.527,0 0,-224.425 z"
         id="path302" /></clipPath><clipPath
       id="clipPath328"><path
         d="m 59.918,100.368 367.527,0 0,224.425 -367.527,0 0,-224.425 z"
         id="path330" /></clipPath><clipPath
       id="clipPath342"><path
         d="m 59.918,100.368 367.527,0 0,224.425 -367.527,0 0,-224.425 z"
         id="path344" /></clipPath><clipPath
       id="clipPath354"><path
         d="m 59.918,100.368 367.527,0 0,224.425 -367.527,0 0,-224.425 z"
         id="path356" /></clipPath><clipPath
       id="clipPath980"><path
         d="m 0,0 461.528,0 0,637.276 L 0,637.276 0,0 z"
         id="path982" /></clipPath><clipPath
       id="clipPath992"><path
         d="m 0,0 461.528,0 0,637.276 L 0,637.276 0,0 z"
         id="path994" /></clipPath><clipPath
       id="clipPath1004"><path
         d="m 0,0 461.528,0 0,637.276 L 0,637.276 0,0 z"
         id="path1006" /></clipPath><clipPath
       id="clipPath1016"><path
         d="m 0,0 461.528,0 0,637.276 L 0,637.276 0,0 z"
         id="path1018" /></clipPath><clipPath
       id="clipPath1028"><path
         d="m 0,0 461.528,0 0,637.276 L 0,637.276 0,0 z"
         id="path1030" /></clipPath><clipPath
       id="clipPath1040"><path
         d="m 0,0 461.528,0 0,637.276 L 0,637.276 0,0 z"
         id="path1042" /></clipPath><clipPath
       id="clipPath1052"><path
         d="m 0,0 461.528,0 0,637.276 L 0,637.276 0,0 z"
         id="path1054" /></clipPath></defs><g
     transform="matrix(1.25,0,0,-1.25,-230.68666,363.04015)"
     id="g10"><g
       id="g4207"><path
         d="m 184.54933,217.60812 64.226,0 0,72.824 -64.226,0 0,-72.824 z"
         id="path12"
         style="fill:#0053A1;fill-opacity:1;fill-rule:nonzero;stroke:none" /><g
         transform="translate(61.533335,205.11112)"
         id="g14"><g
           id="g16"><g
             clip-path="url(#clipPath20)"
             id="g18"><g
               transform="translate(144.3418,55.0908)"
               id="g24"><path
                 d="m 0,0 c -0.817,-0.081 -2.288,-0.081 -3.106,-0.081 l 0,3.676 2.779,0 c 0.408,0 0.817,-0.082 1.225,-0.082 0,0.082 -0.081,0.246 -0.081,0.328 0,0.081 0.081,0.244 0.081,0.327 -0.408,0 -0.817,-0.083 -1.225,-0.083 l -2.779,0 0,3.188 1.717,0 L 0,7.19 c 0.408,0 0.817,-0.081 1.226,-0.081 0,0.081 -0.082,0.246 -0.082,0.327 0,0.163 0.082,0.245 0.082,0.409 l -5.557,0 0,-8.499 5.638,0 c 0,0.082 -0.081,0.245 -0.081,0.327 0,0.163 0.081,0.246 0.081,0.408 C 0.898,0 0.408,0 0,0 m 11.44,7.845 -0.491,0 0,-8.581 c 0.082,0.082 0.245,0.082 0.409,0.082 0.082,0 0.245,0 0.326,-0.082 l 0,6.783 0.165,0 5.964,-5.966 c 0.327,-0.326 0.572,-0.572 0.736,-0.817 l 0.409,0 0,8.581 c -0.164,0 -0.246,-0.082 -0.409,-0.082 -0.164,0 -0.245,0.082 -0.409,0.082 l 0,-6.457 -0.08,0 -6.62,6.457 z M -5.639,0.653 c -0.245,-0.245 -1.388,-0.98 -2.941,-0.98 -2.124,0 -3.677,1.471 -3.677,3.922 0,2.043 1.226,3.923 3.759,3.923 1.471,0 2.451,-0.817 2.696,-1.063 l 0.082,0 c 0.081,0.328 0.163,0.654 0.245,0.981 -0.899,0.327 -1.961,0.572 -2.942,0.572 -2.942,0 -5.229,-1.634 -5.229,-4.413 0,-2.696 1.879,-4.412 4.902,-4.412 1.062,0 2.207,0.163 3.024,0.653 l 0.081,0.817 z m 9.398,3.269 0,3.433 c 0.572,0 2.124,0.081 2.614,0 C 7.436,7.19 7.926,6.619 7.926,5.802 7.926,4.822 7.191,4.168 6.129,4.003 5.474,3.841 4.003,3.922 3.759,3.922 M 9.234,0.327 6.373,3.595 c 1.389,0.164 2.861,0.899 2.861,2.37 0,1.225 -0.981,1.88 -3.105,1.88 l -3.515,0 0,-8.581 c 0.246,0.082 0.409,0.082 0.655,0.082 0.163,0 0.408,0 0.572,-0.082 l 0,4.168 1.143,0 L 6.047,2.288 7.68,0.408 C 8.008,0 8.253,-0.327 8.579,-0.736 c 0.246,0.082 0.491,0.082 0.819,0.082 0.244,0 0.488,0 0.734,-0.082 L 9.886,-0.409 9.234,0.327 z M 1.361,-18.497 c -0.896,0.13 -1.774,0.317 -2.634,0.552 2.179,-2.148 4.806,-3.818 7.722,-4.85 l 0.994,1.088 c -2.215,0.714 -4.275,1.799 -6.082,3.21 M -3.17,9.854 -1.467,9.84 c 2.135,2.771 7.614,6.876 14.965,6.876 1.599,0 3.152,-0.196 4.64,-0.557 -0.585,0.611 -1.208,1.182 -1.869,1.71 -0.908,0.12 -1.831,0.188 -2.771,0.188 -6.574,0 -12.649,-2.989 -16.668,-8.203 m 16.668,-32.522 c -0.94,0 -1.863,0.081 -2.772,0.21 l -1.083,-1.188 c 1.255,-0.232 2.542,-0.363 3.855,-0.363 5.978,0 11.376,2.51 15.209,6.527 l -0.369,1.582 c -3.613,-4.142 -8.924,-6.768 -14.84,-6.768 m 17.541,8.102 c 1.712,2.583 2.862,5.564 3.295,8.77 l 0.091,-0.013 3.378,24.142 -1.328,0.186 -2.403,-17.164 c -1.416,6.734 -6.056,12.295 -12.233,14.974 0.553,-0.722 1.06,-1.481 1.519,-2.27 5.873,-3.412 9.834,-9.768 9.834,-17.036 0,-3.539 -0.945,-6.861 -2.586,-9.734 l 0.433,-1.855 z m -37.234,11.589 0.006,0.465 -1.341,0.029 -0.006,-0.494 c 0,-1.738 0.213,-3.467 0.633,-5.138 0.469,-1.869 1.188,-3.618 2.101,-5.233 0.735,-0.415 1.501,-0.774 2.29,-1.088 -1.403,1.962 -2.475,4.196 -3.091,6.648 -0.392,1.564 -0.592,3.184 -0.592,4.811 m 30.383,6.083 c 0,-10.86 -8.834,-19.694 -19.694,-19.694 -9.046,0 -16.901,6.12 -19.101,14.881 -0.393,1.564 -0.592,3.183 -0.592,4.813 0,10.858 8.834,19.692 19.693,19.692 10.86,0 19.694,-8.834 19.694,-19.692 M 4.494,24.139 c -11.598,0 -21.034,-9.436 -21.034,-21.033 0,-1.74 0.213,-3.468 0.633,-5.139 0.044,-0.177 0.105,-0.344 0.153,-0.519 l -0.01,-0.003 5.272,-18.87 1.292,0.361 -3.288,11.764 c 3.868,-5.296 10.095,-8.628 16.982,-8.628 3.453,0 6.712,0.842 9.589,2.323 l -35.498,-38.949 1.815,0 39.637,43.488 -0.008,0.007 c 2.84,3.11 4.754,7.076 5.319,11.459 l 13.044,-55.872 1.378,0 L 24.977,7.89 24.973,7.888 c -1.606,6.875 -6.587,12.462 -13.097,14.91 l 31.097,0 0,1.341 -38.479,0 z"
                 id="path26"
                 style="fill:#ffffff;fill-opacity:1;fill-rule:nonzero;stroke:none" /></g></g></g></g></g></g></svg>