<?xml version="1.0" encoding="UTF-8" standalone="no"?>
<svg
   xmlns:dc="http://purl.org/dc/elements/1.1/"
   xmlns:cc="http://creativecommons.org/ns#"
   xmlns:rdf="http://www.w3.org/1999/02/22-rdf-syntax-ns#"
   xmlns:svg="http://www.w3.org/2000/svg"
   xmlns="http://www.w3.org/2000/svg"
   xmlns:sodipodi="http://sodipodi.sourceforge.net/DTD/sodipodi-0.dtd"
   xmlns:inkscape="http://www.inkscape.org/namespaces/inkscape"
   height="150.12468"
   width="474.94363"
   version="1.1"
   viewBox="0 0 474.94363 150.12468"
   id="svg2"
   inkscape:version="0.91 r13725"
   sodipodi:docname="Maastricht_University_logo.svg">
  <metadata
     id="metadata14">
    <rdf:RDF>
      <cc:Work
         rdf:about="">
        <dc:format>image/svg+xml</dc:format>
        <dc:type
           rdf:resource="http://purl.org/dc/dcmitype/StillImage" />
        <dc:title></dc:title>
      </cc:Work>
    </rdf:RDF>
  </metadata>
  <defs
     id="defs12" />
  <sodipodi:namedview
     pagecolor="#ffffff"
     bordercolor="#666666"
     borderopacity="1"
     objecttolerance="10"
     gridtolerance="10"
     guidetolerance="10"
     inkscape:pageopacity="0"
     inkscape:pageshadow="2"
     inkscape:window-width="1858"
     inkscape:window-height="1053"
     id="namedview10"
     showgrid="false"
     borderlayer="true"
     fit-margin-top="0"
     fit-margin-left="0"
     fit-margin-right="0"
     fit-margin-bottom="0"
     inkscape:zoom="1"
     inkscape:cx="310.99788"
     inkscape:cy="83.628538"
     inkscape:window-x="-8"
     inkscape:window-y="-8"
     inkscape:window-maximized="1"
     inkscape:current-layer="svg2" />
  <g
     id="g4253"
     transform="matrix(0.98667774,0,0,0.98667774,-18.470855,-200.57195)">
    <g
       transform="matrix(1.3617172,0,0,1.3617172,-9.3955256,172.83581)"
       style="fill:#001f3e;fill-opacity:1"
       id="g4249">
      <path
         inkscape:connector-curvature="0"
         style="fill:#001f3e;fill-opacity:1"
         d="m 23.001953,23.101562 0,54.125 55.578125,-25.27539 -55.578125,-28.84961 z m 8.355469,18.50586 5.167969,0 0,11.720703 c 0,2 0.611,3.083984 2.75,3.083984 2.083,0 2.75,-0.888656 2.75,-3.222656 l 0,-11.582031 5.111328,0 0,11.304687 c 0,5.444 -3.139969,7.833985 -8.167969,7.833985 -6.028,0 -7.611328,-3.194969 -7.611328,-7.167969 l 0,-11.970703 z"
         id="path4210" />
      <path
         inkscape:connector-curvature="0"
         style="fill:#001f3e;fill-opacity:1"
         d="m 89.890625,60.085938 -55.566406,28.564453 55.566406,25.339839 0,-53.904292 z M 64.660156,77.6875 l 5.398438,0 3.138672,13.458984 3.447265,-13.458984 5.673828,0 3.800782,18.75 -4.515625,0 L 79.197266,83 75.8125,96.4375 l -5.15625,0 L 67.408203,83 l -2.748047,13.4375 -4.630859,0 4.630859,-18.75 z"
         id="path4208" />
    </g>
    <g
       transform="matrix(1.3798305,0,0,1.3798305,-26.996192,140.71839)"
       style="fill:#001f3e;fill-opacity:1"
       id="g4236">
      <path
         inkscape:connector-curvature="0"
         style="fill:#001f3e;fill-opacity:1"
         d="m 170.94,88.774 -5.73,-36.854 -8.24,0 -6.34,19.055 c -0.92,2.73 -1.53,4.805 -2.07,7.644 l -0.11,0 c -0.49,-2.621 -1.15,-5.132 -2.02,-7.753 l -6.17,-18.946 -8.3,0 -5.68,36.854 7.21,0 2.07,-16.98 c 0.44,-3.221 0.82,-6.115 1.04,-9.391 l 0.11,0 c 0.44,2.948 1.37,6.279 2.35,9.282 l 5.62,17.089 7.05,0 5.84,-18.509 c 0.93,-2.894 1.53,-5.514 2.02,-7.862 l 0.11,0 c 0.27,2.566 0.6,5.296 1.14,8.79 l 2.62,17.581 7.48,0 z"
         id="path4206" />
      <path
         inkscape:connector-curvature="0"
         style="fill:#001f3e;fill-opacity:1"
         d="m 186.15039,61.037109 c -3.5,0 -6.9907,0.71036 -9.7207,1.69336 l 0.59961,5.841797 c 2.29,-1.311 5.57148,-2.128907 8.02148,-2.128907 3.93,0 5.29883,1.474454 5.29883,4.314453 l 0,1.472657 c -9.23,0 -15.66992,3.4405 -15.66992,9.9375 0,4.368 2.84,7.152343 7.75,7.152343 4.04,0 7.36969,-2.129499 8.67969,-5.1875 l 0.0605,0.05469 c -0.22,1.42 -0.26953,3.002937 -0.26953,4.585938 l 6.59961,0 c -0.11,-2.238 -0.16016,-4.804282 -0.16016,-6.988282 l 0,-11.300781 c 0,-5.897 -2.45945,-9.447266 -11.18945,-9.447266 z m 4.19922,15.726563 0,0.654297 c 0,3.276 -2.34906,6.552734 -5.78906,6.552734 -2.02,0 -3.22071,-1.147531 -3.22071,-2.894531 0,-2.184 1.63977,-4.3125 9.00977,-4.3125 z"
         id="path4204" />
      <path
         inkscape:connector-curvature="0"
         style="fill:#001f3e;fill-opacity:1"
         d="m 214.7207,61.037109 c -3.49,0 -6.9907,0.71036 -9.7207,1.69336 l 0.60938,5.841797 c 2.28999,-1.311 5.56148,-2.128907 8.02148,-2.128907 3.93,0 5.29883,1.474454 5.29883,4.314453 l 0,1.472657 c -9.23,0 -15.66992,3.4405 -15.66992,9.9375 0,4.368 2.84,7.152343 7.75,7.152343 4.04,0 7.36968,-2.129499 8.67968,-5.1875 l 0.0606,0.05469 c -0.22,1.42 -0.2793,3.002937 -0.2793,4.585938 l 6.60938,0 c -0.11,-2.238 -0.16016,-4.804282 -0.16016,-6.988282 l 0,-11.300781 c 0,-5.897 -2.45922,-9.447266 -11.19922,-9.447266 z m 4.20899,15.726563 0,0.654297 c 0,3.276 -2.34907,6.552734 -5.78907,6.552734 -2.02,0 -3.2207,-1.147531 -3.2207,-2.894531 0,-2.184 1.63977,-4.3125 9.00977,-4.3125 z"
         id="path4200" />
      <path
         inkscape:connector-curvature="0"
         style="fill:#001f3e;fill-opacity:1"
         d="m 250.34,80.366 c 0,-8.79 -11.13,-6.825 -11.13,-11.247 0,-1.693 1.31,-2.785 4.04,-2.785 1.69,0 3.49,0.273 5.02,0.71 l 0.22,-5.515 c -1.64,-0.273 -3.39,-0.491 -4.97,-0.491 -7.64,0 -11.52,3.931 -11.52,8.681 0,9.227 10.97,6.498 10.97,11.302 0,1.802 -1.74,2.894 -4.42,2.894 -2.07,0 -4.15,-0.382 -5.84,-0.819 l -0.16,5.733 c 1.74,0.273 3.71,0.491 5.67,0.491 7.43,0 12.12,-3.603 12.12,-8.954 z"
         id="path4196" />
      <path
         inkscape:connector-curvature="0"
         style="fill:#001f3e;fill-opacity:1"
         d="m 271.06,88.611 0,-5.624 c -0.98,0.273 -2.24,0.437 -3.38,0.437 -2.41,0 -3.23,-0.983 -3.23,-4.478 l 0,-11.902 6.61,0 0,-5.405 -6.61,0 0,-10.21 -6.98,1.856 0,8.354 -4.65,0 0,5.405 4.7,0 0,13.759 c 0,6.333 1.86,8.517 7.86,8.517 1.91,0 3.93,-0.273 5.68,-0.709 z"
         id="path4194" />
      <path
         inkscape:connector-curvature="0"
         style="fill:#001f3e;fill-opacity:1"
         d="m 291.56,61.038 c -4.7,-0.382 -7.32,2.621 -8.63,6.06 l -0.11,0 c 0.33,-1.91 0.49,-4.094 0.49,-5.459 l -6.6,0 0,27.135 6.99,0 0,-11.083 c 0,-7.535 2.51,-10.811 7.53,-9.774 l 0.33,-6.879 z"
         id="path4192" />
      <path
         inkscape:connector-curvature="0"
         style="fill:#001f3e;fill-opacity:1"
         d="m 303.92,53.886 c 0,-2.348 -1.97,-4.205 -4.37,-4.205 -2.4,0 -4.31,1.911 -4.31,4.205 0,2.347 1.91,4.258 4.31,4.258 2.4,0 4.37,-1.911 4.37,-4.258 z"
         id="path4190" />
      <path
         inkscape:connector-curvature="0"
         style="fill:#001f3e;fill-opacity:1"
         d="m 303.05,88.774 0,-27.135 -6.99,0 0,27.135 6.99,0 z"
         id="path4188" />
      <path
         inkscape:connector-curvature="0"
         style="fill:#001f3e;fill-opacity:1"
         d="m 328.29,88.01 -0.54,-5.951 c -1.48,0.764 -3.5,1.146 -5.35,1.146 -4.64,0 -6.45,-3.167 -6.45,-7.807 0,-5.133 2.24,-8.409 6.67,-8.409 1.74,0 3.44,0.437 4.91,0.983 l 0.71,-6.06 c -1.75,-0.492 -3.71,-0.765 -5.57,-0.765 -9.61,0 -14.03,6.497 -14.03,14.96 0,9.228 4.69,13.159 12.23,13.159 2.89,0 5.57,-0.546 7.42,-1.256 z"
         id="path4186" />
      <path
         inkscape:connector-curvature="0"
         style="fill:#001f3e;fill-opacity:1"
         d="m 357.31,88.774 0,-19.055 c 0,-4.75 -1.97,-8.681 -8.08,-8.681 -4.21,0 -7.32,2.02 -8.9,5.078 l -0.11,-0.055 c 0.38,-1.583 0.49,-3.876 0.49,-5.514 l 0,-11.63 -6.99,0 0,39.857 6.99,0 0,-13.103 c 0,-4.751 2.78,-8.791 6.33,-8.791 2.57,0 3.33,1.693 3.33,4.532 l 0,17.362 6.94,0 z"
         id="path4184" />
      <path
         inkscape:connector-curvature="0"
         style="fill:#001f3e;fill-opacity:1"
         d="m 379.66,88.611 0,-5.624 c -0.98,0.273 -2.24,0.437 -3.38,0.437 -2.41,0 -3.22,-0.983 -3.22,-4.478 l 0,-11.902 6.6,0 0,-5.405 -6.6,0 0,-10.21 -6.99,1.856 0,8.354 -4.64,0 0,5.405 4.69,0 0,13.759 c 0,6.333 1.86,8.517 7.86,8.517 1.91,0 3.93,-0.273 5.68,-0.709 z"
         id="path4182" />
    </g>
    <g
       transform="matrix(1.3871633,0,0,1.3871633,-404.89716,212.4976)"
       style="fill:#001f3e;fill-opacity:1"
       id="g4222">
      <path
         inkscape:connector-curvature="0"
         style="fill:#001f3e;fill-opacity:1"
         d="m 427.59,74.469 0,-22.549 -7.04,0 0,22.986 c 0,6.279 -2.3,8.572 -7.76,8.572 -6.11,0 -7.64,-3.276 -7.64,-7.917 l 0,-23.641 -7.1,0 0,24.078 c 0,7.043 2.62,13.377 14.25,13.377 9.72,0 15.29,-4.805 15.29,-14.906 z"
         id="path4180" />
      <path
         inkscape:connector-curvature="0"
         style="fill:#001f3e;fill-opacity:1"
         d="m 458.74,88.774 0,-19.055 c 0,-4.75 -1.97,-8.681 -8.09,-8.681 -4.42,0 -7.58,2.239 -9.22,5.46 l -0.06,-0.055 c 0.28,-1.419 0.38,-3.549 0.38,-4.804 l -6.6,0 0,27.135 6.99,0 0,-13.103 c 0,-4.751 2.78,-8.791 6.33,-8.791 2.57,0 3.33,1.693 3.33,4.532 l 0,17.362 6.94,0 z"
         id="path4178" />
      <path
         inkscape:connector-curvature="0"
         style="fill:#001f3e;fill-opacity:1"
         d="m 474.15,53.886 c 0,-2.348 -1.96,-4.205 -4.36,-4.205 -2.41,0 -4.32,1.911 -4.32,4.205 0,2.347 1.91,4.258 4.32,4.258 2.4,0 4.36,-1.911 4.36,-4.258 z"
         id="path4176" />
      <path
         inkscape:connector-curvature="0"
         style="fill:#001f3e;fill-opacity:1"
         d="m 473.28,88.774 0,-27.135 -6.99,0 0,27.135 6.99,0 z"
         id="path4174" />
      <path
         inkscape:connector-curvature="0"
         style="fill:#001f3e;fill-opacity:1"
         d="m 504.48,61.639 -7.43,0 -4.36,12.448 c -0.66,1.857 -1.2,3.931 -1.64,5.788 l -0.11,0 c -0.49,-1.966 -1.15,-4.15 -1.8,-6.006 l -4.32,-12.23 -7.64,0 10.05,27.135 7.09,0 10.16,-27.135 z"
         id="path4172" />
      <path
         inkscape:connector-curvature="0"
         style="fill:#001f3e;fill-opacity:1"
         d="m 519.18945,61.037109 c -8.14,0 -12.71875,6.115063 -12.71875,14.414063 0,9.555 4.79969,13.86914 13.42969,13.86914 3.38,0 6.81875,-0.601046 9.71875,-1.748046 l -0.6582,-5.404297 c -2.34,1.092 -5.24016,1.691406 -7.91016,1.691406 -5.03,0 -7.54047,-2.456203 -7.48047,-7.533203 l 16.81055,0 c 0.17,-1.147 0.21875,-2.239969 0.21875,-3.167969 0,-6.716 -3.49016,-12.121094 -11.41016,-12.121094 z m -0.21875,5.132813 c 2.95,0 4.80922,2.02025 4.69922,5.40625 l -9.99023,0 c 0.38,-3.276 2.40101,-5.40625 5.29101,-5.40625 z"
         id="path4170" />
      <path
         inkscape:connector-curvature="0"
         style="fill:#001f3e;fill-opacity:1"
         d="m 551.26,61.038 c -4.69,-0.382 -7.31,2.621 -8.62,6.06 l -0.11,0 c 0.32,-1.91 0.49,-4.094 0.49,-5.459 l -6.61,0 0,27.135 6.99,0 0,-11.083 c 0,-7.535 2.51,-10.811 7.53,-9.774 l 0.33,-6.879 z"
         id="path4166" />
      <path
         inkscape:connector-curvature="0"
         style="fill:#001f3e;fill-opacity:1"
         d="m 572.58,80.366 c 0,-8.79 -11.14,-6.825 -11.14,-11.247 0,-1.693 1.31,-2.785 4.04,-2.785 1.69,0 3.49,0.273 5.02,0.71 l 0.22,-5.515 c -1.64,-0.273 -3.38,-0.491 -4.97,-0.491 -7.64,0 -11.52,3.931 -11.52,8.681 0,9.227 10.98,6.498 10.98,11.302 0,1.802 -1.75,2.894 -4.43,2.894 -2.07,0 -4.14,-0.382 -5.84,-0.819 l -0.16,5.733 c 1.75,0.273 3.71,0.491 5.68,0.491 7.42,0 12.12,-3.603 12.12,-8.954 z"
         id="path4164" />
      <path
         inkscape:connector-curvature="0"
         style="fill:#001f3e;fill-opacity:1"
         d="m 586.36,53.886 c 0,-2.348 -1.97,-4.205 -4.37,-4.205 -2.4,0 -4.31,1.911 -4.31,4.205 0,2.347 1.91,4.258 4.31,4.258 2.4,0 4.37,-1.911 4.37,-4.258 z"
         id="path4162" />
      <path
         inkscape:connector-curvature="0"
         style="fill:#001f3e;fill-opacity:1"
         d="m 585.49,88.774 0,-27.135 -6.99,0 0,27.135 6.99,0 z"
         id="path4160" />
      <path
         inkscape:connector-curvature="0"
         style="fill:#001f3e;fill-opacity:1"
         d="m 607.79,88.611 0,-5.624 c -0.99,0.273 -2.24,0.437 -3.39,0.437 -2.4,0 -3.22,-0.983 -3.22,-4.478 l 0,-11.902 6.61,0 0,-5.405 -6.61,0 0,-10.21 -6.99,1.856 0,8.354 -4.64,0 0,5.405 4.69,0 0,13.759 c 0,6.333 1.86,8.517 7.87,8.517 1.91,0 3.93,-0.273 5.68,-0.709 z"
         id="path4158" />
      <path
         inkscape:connector-curvature="0"
         style="fill:#001f3e;fill-opacity:1"
         d="m 636.91,61.639 -7.48,0 -3.22,9.227 c -0.88,2.566 -2.02,6.17 -2.62,8.626 l -0.06,0 c -0.6,-2.456 -1.31,-5.132 -2.13,-7.48 l -3.65,-10.373 -7.76,0 9.99,27.135 -0.92,2.621 c -1.42,4.04 -2.95,5.078 -5.25,5.078 -1.31,0 -2.45,-0.219 -3.71,-0.601 l -0.44,6.008 c 1.15,0.27 2.63,0.43 3.83,0.43 6.22,0 9.06,-2.561 12.28,-11.024 l 11.14,-29.647 z"
         id="path6" />
    </g>
  </g>
</svg>
